<?xml version="1.0" encoding="utf-8"?>
<!-- Generator: Adobe Illustrator 27.5.0, SVG Export Plug-In . SVG Version: 6.00 Build 0)  -->
<svg version="1.1" xmlns="http://www.w3.org/2000/svg" xmlns:xlink="http://www.w3.org/1999/xlink" x="0px" y="0px"
	 viewBox="0 0 500 500" style="enable-background:new 0 0 500 500;" xml:space="preserve">
<g id="BACKGROUND">
	<rect style="fill:#FFFFFF;" width="500" height="500"/>
</g>
<g id="OBJECTS">
	<g>
		<path style="fill:#2E3192;" d="M354.803,213.992c0,36.111-29.299,65.482-65.31,65.482c-14.821,0-28.481-4.984-39.467-13.372
			c1.601-1.173,3.114-2.452,4.591-3.819h0.035c9.79,7.136,21.823,11.361,34.84,11.361c32.818,0,59.495-26.752,59.495-59.652
			c0-32.909-26.678-59.687-59.495-59.687c-32.809,0-59.487,26.752-59.522,59.652v0.035h-5.805v-0.035c0-0.344,0-0.67,0.026-1.014
			c0-1.896,0.114-3.793,0.317-5.654c0.035-0.326,0.062-0.644,0.114-0.961c0.061-0.706,0.15-1.402,0.264-2.073
			c0.15-0.961,0.29-1.896,0.493-2.822v-0.035c0.704-3.731,1.75-7.339,3.114-10.84v-0.026c0.519-1.402,1.108-2.77,1.742-4.11
			c0.211-0.45,0.422-0.9,0.642-1.341c1.39-2.831,2.964-5.539,4.732-8.106c1.108-1.632,2.269-3.175,3.518-4.657
			c1.953-2.364,4.073-4.604,6.307-6.651h0.035c1.478-1.367,2.964-2.62,4.556-3.846h0.035c10.986-8.362,24.646-13.345,39.432-13.345
			C325.504,148.475,354.803,177.846,354.803,213.992z"/>
		<path style="fill:#2E3192;" d="M339.894,213.992c0,27.855-22.614,50.532-50.401,50.532c-10.573,0-20.398-3.29-28.507-8.944
			c1.223-1.491,2.384-3.034,3.457-4.639c7.151,4.904,15.754,7.753,25.051,7.753c24.593,0,44.586-20.049,44.586-44.701
			c0-24.662-19.993-44.737-44.586-44.737c-24.584,0-44.551,20.049-44.578,44.702v0.035h-5.814v-0.035
			c0.026-27.89,22.614-50.532,50.392-50.532C317.28,163.425,339.894,186.102,339.894,213.992z"/>
		<path style="fill:#2E3192;" d="M324.747,213.992c0,19.493-15.806,35.352-35.254,35.352c-7.582,0-14.557-2.39-20.283-6.501
			c0.871-1.782,1.689-3.59,2.357-5.451c4.97,3.819,11.188,6.121,17.926,6.121c16.22,0,29.449-13.266,29.449-29.522
			c0-16.291-13.229-29.531-29.449-29.531c-16.246,0-29.405,13.204-29.44,29.495v0.035h-5.814v-0.035
			c0.035-19.493,15.815-35.317,35.254-35.317C308.941,178.64,324.747,194.49,324.747,213.992z"/>
		<path style="fill:#2E3192;" d="M289.493,194.49c-10.722,0-19.439,8.741-19.439,19.502h5.814c0-7.55,6.104-13.672,13.625-13.672
			c7.503,0,13.607,6.121,13.607,13.672c0,7.515-6.104,13.636-13.607,13.636c-7.38,0-13.396-5.883-13.598-13.204
			c-0.026-0.141-0.026-0.291-0.026-0.432c0,4.278-0.413,8.476-1.223,12.56l0.026,0.026c3.58,4.199,8.866,6.88,14.821,6.88
			c10.696,0,19.421-8.741,19.421-19.467C308.915,203.231,300.189,194.49,289.493,194.49z"/>
	</g>
	<g>
		<path style="fill:#ED1C24;" d="M270.054,213.989c0,6.616-1.075,12.998-3.11,18.944c-0.668,2.04-1.453,4.051-2.383,6.004
			c-1.337,2.914-2.935,5.712-4.737,8.364c-1.076,1.632-2.238,3.177-3.488,4.663c-1.918,2.361-4.069,4.576-6.365,6.587
			c-1.453,1.311-2.994,2.565-4.592,3.701c-9.242,6.703-20.49,10.842-32.638,11.279c-1.017,0.029-2.035,0.087-3.052,0.087
			c-0.988-0.029-1.976-0.087-2.935-0.175c-1.075-0.058-2.122-0.117-3.168-0.233c-0.814-0.088-1.628-0.233-2.441-0.379
			c-1.192-0.175-2.354-0.379-3.517-0.641c-0.61-0.116-1.221-0.321-1.831-0.466c-1.337-0.35-2.645-0.699-3.953-1.137
			c-0.407-0.116-0.785-0.291-1.192-0.437c-1.453-0.525-2.906-1.049-4.301-1.69c-0.233-0.117-0.494-0.233-0.727-0.35
			c-1.511-0.729-3.023-1.457-4.447-2.273c-0.175-0.117-0.32-0.204-0.465-0.291c-1.511-0.874-2.964-1.807-4.389-2.798
			c-0.145-0.117-0.261-0.204-0.378-0.291c-1.424-1.02-2.79-2.099-4.127-3.235c-0.145-0.116-0.262-0.262-0.407-0.379
			c-1.279-1.137-2.529-2.303-3.691-3.527c-0.204-0.204-0.378-0.408-0.552-0.612c-1.104-1.166-2.18-2.39-3.197-3.643
			c-0.232-0.291-0.436-0.612-0.668-0.904c-0.93-1.195-1.802-2.448-2.645-3.73c-0.261-0.379-0.465-0.787-0.727-1.166
			c-0.756-1.224-1.482-2.477-2.151-3.789c-0.261-0.437-0.465-0.933-0.698-1.399c-0.61-1.253-1.221-2.536-1.744-3.847
			c-0.203-0.525-0.378-1.049-0.581-1.574c-0.465-1.311-0.93-2.623-1.337-3.964c-0.145-0.583-0.291-1.166-0.436-1.749
			c-0.349-1.312-0.669-2.652-0.93-4.022c-0.116-0.641-0.204-1.311-0.291-1.953c-0.203-1.311-0.378-2.623-0.494-3.964
			c-0.087-0.787-0.087-1.574-0.116-2.39c-0.058-1.224-0.116-2.448-0.087-3.643c0-0.874,0.058-1.719,0.116-2.565
			c0.087-1.166,0.145-2.331,0.291-3.468c0.087-0.816,0.233-1.574,0.349-2.361c0.174-1.195,0.378-2.39,0.639-3.556
			c0.145-0.699,0.349-1.37,0.523-2.04c0.32-1.224,0.639-2.477,1.046-3.672c0.174-0.583,0.407-1.166,0.639-1.719
			c0.436-1.253,0.901-2.506,1.453-3.731c0.232-0.524,0.494-1.02,0.727-1.544c0.581-1.224,1.192-2.419,1.86-3.585
			c0.291-0.525,0.61-1.02,0.901-1.515c0.669-1.137,1.366-2.244,2.122-3.323c0.378-0.524,0.785-1.049,1.162-1.574
			c0.756-0.991,1.482-1.953,2.267-2.914c0.494-0.583,1.046-1.137,1.569-1.69c0.727-0.816,1.482-1.661,2.267-2.419
			c0.639-0.641,1.337-1.224,2.005-1.807c0.727-0.67,1.453-1.341,2.209-1.953c0.785-0.641,1.599-1.224,2.441-1.807
			c0.697-0.525,1.395-1.049,2.122-1.545c0.901-0.612,1.86-1.137,2.79-1.719c0.727-0.408,1.395-0.816,2.122-1.195
			c0.988-0.525,2.035-1.02,3.052-1.486c0.727-0.321,1.453-0.67,2.18-0.991c1.046-0.437,2.122-0.787,3.197-1.166
			c0.756-0.262,1.54-0.554,2.325-0.787c1.075-0.321,2.151-0.583,3.255-0.845c0.843-0.204,1.657-0.408,2.499-0.583
			c1.105-0.204,2.238-0.35,3.372-0.525c0.843-0.117,1.686-0.233,2.558-0.321c1.482-0.117,2.964-0.204,4.447-0.204
			c13.282-0.233,25.75,3.935,35.864,11.308c1.482-1.37,2.993-2.652,4.592-3.847c-11.073-8.452-24.82-13.348-39.526-13.319v-0.029
			c-1.279,0-2.529,0.058-3.778,0.117c-0.349,0.029-0.668,0-1.017,0.029c-7.295,0.554-14.212,2.302-20.606,5.013
			c-0.959,0.408-1.918,0.845-2.877,1.312h-0.029c-0.93,0.466-1.831,0.933-2.732,1.428c-0.058,0-0.087,0.029-0.116,0.058
			c-0.872,0.466-1.744,0.962-2.587,1.486c-0.058,0.029-0.145,0.087-0.203,0.117c-0.814,0.495-1.598,1.02-2.383,1.545
			c-0.116,0.058-0.233,0.146-0.349,0.233c-0.727,0.495-1.424,0.991-2.122,1.516c-0.174,0.146-0.349,0.262-0.523,0.379
			c-0.639,0.495-1.25,0.991-1.86,1.486c-0.262,0.204-0.494,0.379-0.698,0.583c-0.552,0.466-1.075,0.903-1.599,1.37
			c-0.291,0.291-0.581,0.554-0.901,0.816c-0.436,0.408-0.872,0.845-1.308,1.253c-0.349,0.35-0.698,0.699-1.046,1.078
			c-0.349,0.35-0.697,0.699-1.017,1.078c-0.436,0.437-0.843,0.904-1.25,1.34c-0.233,0.321-0.494,0.612-0.756,0.904
			c-0.465,0.525-0.901,1.078-1.366,1.661c-0.175,0.204-0.349,0.437-0.523,0.671c-0.494,0.641-0.959,1.282-1.453,1.953
			c-0.116,0.146-0.232,0.32-0.349,0.495c-0.494,0.729-0.988,1.457-1.482,2.215c-0.058,0.088-0.116,0.204-0.203,0.291
			c-0.494,0.816-1.017,1.661-1.482,2.477c-0.029,0.058-0.058,0.117-0.087,0.175c-0.494,0.874-0.988,1.778-1.453,2.681
			c0,0,0,0.029-0.029,0.029c-1.889,3.73-3.459,7.665-4.621,11.774c0,0.029,0,0.029,0,0.058c-0.291,0.991-0.552,2.011-0.785,3.002
			c0,0.058-0.029,0.087-0.029,0.146c-0.232,0.991-0.436,1.982-0.61,3.002c-0.029,0.058-0.029,0.146-0.058,0.204
			c-0.174,0.991-0.32,1.982-0.436,2.973c-0.029,0.087-0.029,0.175-0.029,0.262c-0.146,0.991-0.233,2.011-0.32,3.002
			c0,0.087-0.029,0.175-0.029,0.262c-0.058,1.02-0.116,2.04-0.145,3.089v0.146c-0.029,0.583-0.058,1.166-0.058,1.778
			c0,36.139,29.296,65.516,65.305,65.516c14.822,0,28.511-4.984,39.497-13.377c1.598-1.166,3.139-2.477,4.621-3.818
			c2.267-2.099,4.389-4.343,6.336-6.703c1.221-1.486,2.383-3.031,3.458-4.634c1.802-2.565,3.371-5.275,4.767-8.102
			c0.872-1.778,1.686-3.614,2.354-5.479c1.366-3.468,2.412-7.082,3.11-10.812c0.814-4.08,1.221-8.277,1.221-12.561H270.054z"/>
		<path style="fill:#ED1C24;" d="M246.251,239.869c-1.831,2.652-3.924,5.071-6.249,7.199c-1.424,1.341-2.936,2.594-4.534,3.701
			c-6.51,4.634-14.387,7.461-22.989,7.84c-0.93,0.029-1.831,0.058-2.732,0.058c-0.785-0.029-1.54-0.087-2.296-0.116
			c-0.697-0.058-1.395-0.087-2.064-0.175c-0.901-0.087-1.802-0.262-2.703-0.408c-0.523-0.087-1.046-0.175-1.569-0.291
			c-1.017-0.204-1.976-0.466-2.935-0.758c-0.407-0.116-0.843-0.233-1.221-0.35c-1.075-0.35-2.093-0.729-3.11-1.137
			c-0.291-0.117-0.61-0.233-0.901-0.379c-1.075-0.466-2.151-0.962-3.168-1.515c-0.232-0.117-0.465-0.233-0.668-0.35
			c-1.075-0.583-2.122-1.224-3.139-1.924c-0.174-0.087-0.349-0.204-0.494-0.321c-1.046-0.699-2.035-1.457-3.023-2.244
			c-0.116-0.117-0.262-0.204-0.378-0.321c-0.988-0.787-1.889-1.661-2.79-2.536c-0.116-0.117-0.262-0.233-0.378-0.379
			c-0.843-0.845-1.657-1.749-2.412-2.652c-0.174-0.204-0.349-0.379-0.494-0.554c-0.698-0.874-1.337-1.749-1.976-2.652
			c-0.204-0.291-0.436-0.583-0.64-0.904c-0.523-0.787-0.988-1.632-1.482-2.448c-0.262-0.466-0.523-0.904-0.785-1.37
			c-0.349-0.699-0.697-1.399-1.017-2.128c-0.291-0.641-0.61-1.282-0.872-1.953c-0.232-0.554-0.436-1.137-0.639-1.719
			c-0.291-0.845-0.61-1.69-0.843-2.565c-0.145-0.437-0.232-0.874-0.349-1.312c-0.261-1.02-0.523-2.069-0.697-3.148
			c-0.087-0.321-0.116-0.67-0.174-1.02c-0.174-1.137-0.349-2.302-0.436-3.497c-0.029-0.35-0.029-0.729-0.058-1.078
			c-0.058-1.137-0.087-2.273-0.058-3.41c0-0.466,0.029-0.933,0.058-1.428c0.058-1.02,0.116-2.04,0.233-3.031
			c0.058-0.495,0.145-0.962,0.232-1.457c0.145-0.991,0.291-1.982,0.523-2.943c0.087-0.437,0.232-0.904,0.349-1.341
			c0.232-0.991,0.494-1.953,0.814-2.885c0.145-0.437,0.32-0.845,0.465-1.253c0.349-0.962,0.698-1.894,1.105-2.798
			c0.174-0.437,0.378-0.816,0.581-1.224c0.407-0.874,0.843-1.778,1.337-2.623c0.233-0.437,0.494-0.845,0.756-1.253
			c0.465-0.787,0.959-1.603,1.511-2.361c0.291-0.466,0.64-0.874,0.988-1.312c0.494-0.699,1.017-1.399,1.569-2.04
			c0.436-0.495,0.872-0.962,1.308-1.428c0.523-0.583,1.017-1.137,1.569-1.661c0.523-0.525,1.104-1.02,1.657-1.515
			c0.494-0.437,0.959-0.874,1.482-1.312c0.668-0.525,1.337-1.02,2.034-1.516c0.465-0.32,0.901-0.67,1.366-0.991
			c0.785-0.495,1.57-0.962,2.383-1.428c0.407-0.262,0.843-0.525,1.279-0.758c0.872-0.466,1.773-0.874,2.645-1.282
			c0.436-0.175,0.843-0.379,1.25-0.554c0.93-0.408,1.918-0.729,2.877-1.049c0.407-0.146,0.814-0.291,1.221-0.437
			c1.017-0.292,2.064-0.554,3.081-0.787c0.407-0.087,0.785-0.204,1.192-0.262c1.104-0.233,2.238-0.408,3.371-0.525
			c0.349-0.058,0.669-0.087,0.988-0.146c1.424-0.117,2.848-0.204,4.301-0.204c4.621,0,9.097,0.7,13.311,2.04
			c4.214,1.312,8.196,3.235,11.8,5.683c1.105-1.632,2.267-3.177,3.517-4.663c-9.126-6.295-20.402-9.676-32.319-8.773
			c-0.32,0.029-0.639,0.087-0.959,0.117c-0.61,0.058-1.25,0.146-1.86,0.233c-1.046,0.146-2.093,0.291-3.11,0.495
			c-0.668,0.117-1.308,0.291-1.947,0.437c-0.988,0.233-1.947,0.466-2.906,0.758c-0.64,0.175-1.25,0.408-1.86,0.612
			c-0.959,0.35-1.889,0.67-2.819,1.049c-0.581,0.233-1.163,0.525-1.744,0.787c-0.901,0.437-1.802,0.845-2.674,1.311
			c-0.581,0.291-1.134,0.641-1.715,0.962c-0.814,0.495-1.657,0.991-2.47,1.515c-0.581,0.379-1.133,0.816-1.686,1.224
			c-0.756,0.525-1.482,1.049-2.18,1.632c-0.61,0.495-1.191,1.02-1.773,1.544c-0.61,0.525-1.192,1.049-1.773,1.632
			c-0.639,0.612-1.25,1.282-1.831,1.924c-0.494,0.525-0.959,1.02-1.424,1.574c-0.639,0.758-1.25,1.544-1.831,2.331
			c-0.349,0.495-0.727,0.962-1.075,1.457c-0.61,0.874-1.192,1.778-1.744,2.71c-0.261,0.466-0.552,0.903-0.814,1.37
			c-0.552,0.962-1.046,1.982-1.511,2.973c-0.233,0.467-0.465,0.904-0.668,1.37c-0.465,1.02-0.843,2.069-1.221,3.118
			c-0.203,0.495-0.378,0.991-0.552,1.486c-0.349,1.02-0.61,2.069-0.872,3.118c-0.174,0.554-0.32,1.137-0.465,1.719
			c-0.204,0.991-0.378,1.982-0.523,3.002c-0.116,0.67-0.232,1.34-0.32,2.011c-0.116,0.962-0.174,1.923-0.232,2.914
			c-0.029,0.729-0.087,1.457-0.116,2.215c0,0.262-0.029,0.525-0.029,0.816c0,0.729,0.087,1.457,0.116,2.186
			c0.029,0.525,0,1.02,0.029,1.545c0.029,0.204,0.058,0.379,0.058,0.583c0.116,1.049,0.262,2.098,0.407,3.148
			c0.087,0.641,0.174,1.282,0.291,1.923c0.203,0.991,0.436,1.953,0.668,2.944c0.174,0.67,0.32,1.341,0.523,2.011
			c0.262,0.845,0.552,1.69,0.843,2.535c0.262,0.758,0.523,1.516,0.843,2.244c0.261,0.699,0.581,1.341,0.901,2.011
			c0.378,0.874,0.785,1.719,1.221,2.565c0.262,0.495,0.581,0.991,0.872,1.486c0.523,0.962,1.075,1.894,1.686,2.798
			c0.233,0.35,0.494,0.699,0.756,1.078c0.697,0.991,1.395,1.953,2.151,2.885c0.232,0.262,0.465,0.525,0.668,0.787
			c0.843,0.991,1.686,1.953,2.616,2.856c0.203,0.204,0.407,0.408,0.61,0.612c0.959,0.933,1.918,1.807,2.935,2.681
			c0.233,0.175,0.465,0.35,0.698,0.525c1.017,0.816,2.063,1.632,3.168,2.39c0.262,0.175,0.523,0.321,0.814,0.496
			c1.075,0.729,2.151,1.399,3.284,2.011c0.32,0.204,0.668,0.35,1.017,0.525c1.075,0.583,2.18,1.108,3.313,1.603
			c0.436,0.204,0.872,0.35,1.308,0.525c1.046,0.408,2.122,0.845,3.226,1.195c0.523,0.175,1.104,0.291,1.657,0.466
			c0.988,0.291,2.005,0.554,3.022,0.787c0.698,0.146,1.424,0.262,2.122,0.379c0.901,0.146,1.802,0.321,2.703,0.408
			c0.901,0.117,1.802,0.175,2.703,0.204c0.756,0.058,1.482,0.117,2.209,0.117c0.32,0.029,0.639,0.058,0.959,0.058
			c0.901,0,1.744-0.087,2.616-0.146h0.988v-0.029c9.3-0.67,17.787-3.847,24.878-8.918c1.57-1.107,3.081-2.331,4.534-3.643
			c2.267-2.069,4.359-4.342,6.249-6.79c1.221-1.632,2.354-3.352,3.4-5.159c1.889-3.264,3.459-6.791,4.592-10.492
			c1.482-4.838,2.296-9.996,2.296-15.359v-0.029h-5.813v0.029c0,7.199-1.628,14.018-4.592,20.022
			C248.663,236.081,247.529,238.033,246.251,239.869z"/>
		<path style="fill:#ED1C24;" d="M210.503,178.608c-0.145,0-0.291,0.029-0.436,0.029c-0.697,0-1.395,0-2.122,0.058
			c-0.204,0-0.378,0.058-0.581,0.058c-0.552,0.058-1.133,0.146-1.686,0.233c-0.61,0.087-1.192,0.146-1.802,0.262
			c-0.581,0.117-1.163,0.262-1.773,0.408c-0.523,0.146-1.075,0.262-1.598,0.408c-0.61,0.204-1.191,0.408-1.773,0.612
			c-0.494,0.175-0.988,0.35-1.482,0.554c-0.61,0.233-1.191,0.525-1.773,0.787c-0.436,0.204-0.872,0.408-1.308,0.641
			c-0.639,0.321-1.221,0.699-1.802,1.049c-0.378,0.233-0.756,0.437-1.104,0.67c-0.639,0.408-1.25,0.874-1.889,1.341
			c-0.262,0.204-0.552,0.408-0.814,0.612c-0.668,0.554-1.308,1.136-1.947,1.719c-0.174,0.146-0.378,0.321-0.552,0.466
			c-0.698,0.699-1.366,1.399-2.005,2.128c-0.087,0.117-0.174,0.204-0.262,0.291c-0.697,0.816-1.366,1.661-1.976,2.565
			c-0.029,0.029-0.029,0.029-0.058,0.058c-4.098,5.771-6.51,12.794-6.51,20.401c0,6.936,2.035,13.406,5.493,18.885
			c0.058,0.088,0.116,0.175,0.174,0.262c0.494,0.758,1.017,1.486,1.569,2.215c0.145,0.204,0.32,0.437,0.465,0.641
			c0.465,0.583,0.959,1.137,1.453,1.69c0.29,0.321,0.581,0.641,0.872,0.962c0.407,0.408,0.843,0.816,1.308,1.224
			c0.407,0.379,0.814,0.787,1.221,1.137c0.378,0.321,0.756,0.612,1.133,0.904c0.552,0.408,1.075,0.816,1.628,1.195
			c0.32,0.233,0.639,0.437,0.988,0.641c0.639,0.408,1.279,0.816,1.947,1.195c0.291,0.146,0.581,0.291,0.872,0.437
			c0.727,0.379,1.453,0.758,2.209,1.078c0.262,0.117,0.552,0.233,0.843,0.35c0.785,0.291,1.569,0.612,2.354,0.845
			c0.32,0.117,0.61,0.175,0.93,0.262c0.785,0.233,1.599,0.466,2.412,0.641c0.349,0.058,0.697,0.117,1.075,0.175
			c0.756,0.146,1.54,0.291,2.325,0.379c0.465,0.029,0.93,0.058,1.395,0.088c0.669,0.058,1.366,0.117,2.064,0.117
			c0.174,0,0.349,0.029,0.523,0.029c0.465,0,0.93-0.058,1.395-0.058c0.349-0.029,0.727,0,1.104-0.029v-0.029
			c6.685-0.495,12.759-2.856,17.758-6.587c1.628-1.195,3.139-2.535,4.534-3.993c2.529-2.681,4.65-5.8,6.219-9.21
			c0.291-0.583,0.552-1.166,0.785-1.778c0.233-0.583,0.465-1.195,0.668-1.807l0.262-0.845c0.261-0.758,0.465-1.486,0.639-2.273
			c0.087-0.32,0.145-0.641,0.232-0.991c0.145-0.612,0.262-1.253,0.349-1.865c0.087-0.583,0.174-1.166,0.232-1.778
			c0.087-0.67,0.145-1.34,0.174-2.011c0.029-0.583,0.058-1.195,0.058-1.778v-0.321h-5.813v0.029c0,7.024-2.296,13.406-6.19,18.477
			c-1.337,1.72-2.819,3.264-4.505,4.634c-4.418,3.643-9.998,5.916-16.188,6.295c-0.785,0.058-1.54,0.058-2.325,0.058
			c-0.436,0-0.872-0.029-1.337-0.058c-0.465-0.029-0.959-0.058-1.424-0.117c-0.669-0.087-1.308-0.175-1.947-0.291
			c-0.262-0.058-0.552-0.117-0.814-0.146c-0.785-0.175-1.57-0.379-2.354-0.612c-0.116-0.029-0.233-0.058-0.349-0.117
			c-0.872-0.262-1.715-0.583-2.529-0.933c-0.029,0-0.058-0.029-0.087-0.029c-1.773-0.758-3.429-1.661-4.97-2.71
			c-0.029,0-0.029,0-0.029,0c-0.726-0.496-1.453-1.049-2.122-1.603c-0.058-0.058-0.116-0.087-0.174-0.146
			c-0.61-0.495-1.191-1.02-1.744-1.574c-0.145-0.146-0.291-0.262-0.407-0.408c-0.465-0.437-0.872-0.933-1.308-1.428
			c-0.232-0.262-0.465-0.495-0.668-0.787c-0.291-0.35-0.552-0.729-0.843-1.107c-0.32-0.437-0.639-0.845-0.901-1.312
			c-0.174-0.233-0.32-0.466-0.465-0.729c-0.349-0.612-0.727-1.224-1.046-1.865c-0.058-0.087-0.087-0.175-0.145-0.262
			c-1.686-3.381-2.761-7.111-3.052-11.104c-0.436-6.062,0.988-11.862,3.807-16.787c0-0.029,0.029-0.087,0.058-0.117
			c0.436-0.758,0.901-1.486,1.424-2.215c0.087-0.116,0.174-0.262,0.262-0.379c0.465-0.612,0.901-1.224,1.395-1.778
			c0.203-0.233,0.407-0.437,0.61-0.67c0.407-0.466,0.814-0.904,1.279-1.341c0.29-0.291,0.61-0.583,0.93-0.874
			c0.378-0.321,0.727-0.641,1.104-0.962c0.436-0.35,0.872-0.641,1.308-0.962c0.291-0.233,0.61-0.466,0.93-0.67
			c0.523-0.35,1.046-0.67,1.57-0.962c0.291-0.175,0.552-0.35,0.843-0.495c0.581-0.321,1.192-0.583,1.773-0.874
			c0.262-0.117,0.523-0.233,0.785-0.35c0.639-0.262,1.279-0.496,1.918-0.699c0.262-0.088,0.523-0.175,0.814-0.262
			c0.639-0.204,1.337-0.379,2.005-0.525c0.261-0.058,0.523-0.146,0.814-0.204c0.698-0.117,1.424-0.233,2.151-0.321
			c0.232-0.029,0.494-0.058,0.756-0.088c0.901-0.087,1.802-0.146,2.703-0.146c6.743-0.029,13.02,2.215,18.077,6.12
			c0.698-1.865,1.511-3.701,2.383-5.479C225.092,180.969,218.001,178.608,210.503,178.608z"/>
		<path style="fill:#ED1C24;" d="M210.503,233.458c5.958,0,11.335-2.71,14.88-6.966c2.877-3.381,4.592-7.752,4.592-12.503v-0.029
			h-5.842c0,7.315-5.755,13.232-12.962,13.61c-0.61,0.029-1.221,0-1.831-0.058c-0.291-0.029-0.581-0.058-0.872-0.087
			c-0.639-0.088-1.25-0.262-1.889-0.437c-0.204-0.058-0.407-0.117-0.64-0.204c-0.639-0.233-1.25-0.525-1.831-0.845
			c-0.174-0.087-0.349-0.175-0.494-0.262c-0.61-0.35-1.163-0.758-1.686-1.195c-0.145-0.117-0.291-0.233-0.436-0.35
			c-0.494-0.437-0.959-0.933-1.395-1.457c-0.116-0.175-0.262-0.32-0.378-0.495c-0.407-0.495-0.756-1.049-1.075-1.632
			c-0.116-0.204-0.232-0.408-0.32-0.612c-0.291-0.583-0.523-1.195-0.697-1.807c-0.087-0.233-0.174-0.495-0.233-0.729
			c-0.174-0.612-0.261-1.253-0.349-1.894c-0.029-0.291-0.058-0.583-0.087-0.874c-0.029-0.612,0-1.224,0.058-1.836
			c0.029-0.321,0.058-0.641,0.087-0.933c0.087-0.583,0.232-1.136,0.407-1.69c0.087-0.321,0.174-0.612,0.262-0.904
			c0.203-0.525,0.436-1.049,0.697-1.545c0.145-0.291,0.291-0.554,0.465-0.816c0.29-0.496,0.61-0.933,0.959-1.37
			c0.203-0.262,0.378-0.495,0.61-0.758c0.349-0.379,0.727-0.729,1.134-1.078c0.261-0.233,0.552-0.466,0.814-0.699
			c0.407-0.291,0.843-0.554,1.279-0.787c0.32-0.204,0.669-0.408,1.017-0.554c0.436-0.204,0.872-0.379,1.337-0.525
			c0.378-0.146,0.785-0.291,1.192-0.379c0.436-0.117,0.901-0.175,1.366-0.262c0.465-0.058,0.959-0.117,1.453-0.146
			c7.237-0.262,13.511,5.246,14.063,12.59h0.032c0-1.894,0.116-3.789,0.32-5.654c0.029-0.321,0.058-0.641,0.116-0.962
			c0.058-0.699,0.145-1.399,0.262-2.069c0.145-0.962,0.291-1.894,0.494-2.827c-3.575-4.284-8.98-6.936-14.88-6.936
			c-0.116,0-0.233,0.029-0.349,0.029c-0.349,0-0.697-0.029-1.046,0c-0.203,0-0.378,0.058-0.552,0.058
			c-0.029,0.029-0.058,0.029-0.087,0.029c-0.61,0.058-1.25,0.146-1.831,0.262c-0.058,0.029-0.087,0.029-0.145,0.029
			c-0.581,0.146-1.162,0.291-1.715,0.466c-0.058,0-0.087,0.029-0.145,0.029c-0.552,0.204-1.104,0.379-1.628,0.612
			c-0.058,0.029-0.116,0.058-0.174,0.058c-0.523,0.233-1.017,0.495-1.511,0.758c-0.087,0.029-0.145,0.087-0.203,0.117
			c-0.465,0.262-0.93,0.554-1.395,0.845c-0.087,0.058-0.174,0.117-0.262,0.204c-0.407,0.262-0.814,0.583-1.192,0.874
			c-0.145,0.117-0.262,0.233-0.407,0.35c-0.32,0.291-0.639,0.583-0.959,0.874c-0.174,0.175-0.32,0.35-0.494,0.525
			c-0.262,0.262-0.494,0.525-0.727,0.816c-0.204,0.233-0.378,0.495-0.581,0.729c-0.174,0.233-0.378,0.466-0.523,0.729
			c-0.233,0.291-0.407,0.612-0.61,0.933c-0.116,0.204-0.262,0.408-0.378,0.641c-0.203,0.35-0.378,0.699-0.552,1.078
			c-0.087,0.175-0.204,0.379-0.291,0.583c-0.174,0.379-0.32,0.787-0.465,1.166c-0.058,0.204-0.145,0.379-0.203,0.583
			c-0.145,0.408-0.232,0.816-0.349,1.224c-0.058,0.204-0.116,0.408-0.174,0.641c-0.087,0.379-0.145,0.787-0.203,1.195
			c-0.029,0.233-0.087,0.466-0.116,0.729c-0.029,0.379-0.058,0.787-0.087,1.195c-0.029,0.262-0.029,0.495-0.029,0.758
			c0,0.117-0.029,0.233-0.029,0.35c0,0.321,0.029,0.612,0.058,0.933v0.495c0,0.058,0.029,0.117,0.029,0.175
			c0.029,0.525,0.116,1.02,0.175,1.516c0.029,0.117,0.058,0.262,0.058,0.379c0.116,0.583,0.232,1.136,0.407,1.69
			c0,0.058,0.029,0.117,0.029,0.175c0.174,0.583,0.378,1.195,0.61,1.749c0,0.029,0,0.029,0,0.029
			C195.302,228.328,202.307,233.458,210.503,233.458z"/>
	</g>
	<g>
		<rect x="254.239" y="213.957" style="fill:#ED1C24;" width="5.814" height="0.035"/>
		<path style="fill:#ED1C24;" d="M228.494,190.53c0.519-1.402,1.108-2.77,1.742-4.11c-0.633,1.358-1.223,2.743-1.742,4.137V190.53z"
			/>
		<rect x="239.102" y="213.957" style="fill:#ED1C24;" width="5.814" height="0.035"/>
		<rect x="224.166" y="213.957" style="fill:#ED1C24;" width="5.805" height="0.035"/>
	</g>
</g>
<g id="TEXTS">
	
		<text transform="matrix(1 0 0 1 74.3721 318.21)" style="fill:#2E3192; font-family:'Montserrat-SemiBold'; font-size:24px; letter-spacing:7;">KOREAN ATHLETES</text>
	
		<text transform="matrix(1 0 0 1 124.2383 348.3711)" style="fill:#ED1C24; font-family:'Montserrat-SemiBold'; font-size:12px; letter-spacing:2;">- NATIONAL SPORTS LEAGUE -</text>
</g>
</svg>
